<svg xmlns="http://www.w3.org/2000/svg" version="1.0" width="1621.000000pt" height="430.000000pt" viewBox="0 0 1621.000000 430.000000" preserveAspectRatio="xMidYMid meet">

<g transform="translate(0.000000,430.000000) scale(0.100000,-0.100000)" fill="#ffffff" stroke="none">
<path d="M1114 4276 c-97 -43 -198 -69 -311 -81 -139 -16 -186 -33 -256 -93 -27 -23 -54 -42 -62 -42 -30 0 -65 24 -90 61 -28 44 -36 46 -160 52 -80 4 -131 16 -218 52 -26 11 -21 -10 10 -45 24 -26 45 -35 132 -56 181 -42 215 -75 106 -100 l-30 -7 33 -9 c21 -5 54 -31 85 -64 85 -91 180 -124 261 -90 29 12 57 15 120 10 55 -4 91 -2 111 6 l30 13 -30 8 c-16 4 -47 11 -68 14 -48 8 -77 36 -77 75 0 67 72 124 206 165 83 26 181 78 224 121 28 27 27 28 -16 10z" fill="#ffffff"/>
<path d="M9187 4124 c-123 -53 -164 -64 -261 -74 -115 -11 -187 -38 -253 -95 -28 -25 -61 -45 -74 -45 -14 0 -39 19 -68 49 l-46 49 -110 5 c-78 3 -127 10 -170 26 -76 27 -89 27 -75 2 20 -38 68 -62 157 -77 48 -9 107 -24 131 -34 38 -17 42 -22 32 -40 -8 -14 -21 -20 -48 -21 l-37 0 41 -19 c23 -10 55 -34 70 -54 39 -49 94 -84 154 -98 41 -9 60 -8 113 6 43 12 79 15 113 11 50 -7 134 8 134 24 0 5 -27 11 -59 15 -69 8 -111 35 -111 72 0 68 69 127 197 169 44 14 107 41 139 61 58 34 122 90 113 97 -2 2 -39 -11 -82 -29z" fill="#ffffff"/>
<path d="M5850 4036 c-86 -35 -176 -56 -281 -65 -109 -9 -180 -37 -243 -95 -22 -20 -49 -36 -60 -36 -11 0 -41 23 -69 53 l-50 52 -106 6 c-71 5 -126 14 -166 29 -103 38 -102 37 -84 10 24 -37 59 -58 114 -71 78 -18 179 -48 193 -57 23 -15 2 -39 -41 -47 l-42 -8 32 -10 c18 -5 63 -40 100 -76 80 -78 129 -98 215 -86 29 4 99 8 155 9 65 0 106 5 114 13 15 15 6 19 -63 28 -111 15 -124 103 -26 178 18 14 77 40 130 57 93 30 193 82 233 121 24 24 14 23 -55 -5z" fill="#ffffff"/>
<path d="M13970 4031 c-80 -35 -169 -57 -279 -70 -99 -13 -168 -42 -233 -100 -25 -22 -56 -41 -69 -41 -14 0 -40 18 -68 49 l-46 48 -115 6 c-90 4 -130 11 -182 31 -72 27 -89 19 -45 -21 32 -30 60 -42 119 -53 82 -15 188 -51 188 -64 0 -20 -23 -36 -51 -36 -40 0 -44 -16 -8 -24 19 -4 57 -30 98 -69 91 -86 165 -106 261 -72 31 11 61 13 105 9 60 -6 135 8 135 25 0 5 -28 11 -62 15 -83 8 -108 26 -108 75 0 68 56 117 190 165 101 37 181 81 221 122 40 41 33 42 -51 5z" fill="#ffffff"/>
<path d="M2545 3631 c-3 -5 -1 -12 5 -16 23 -14 7 -36 -51 -66 -113 -61 -177 -165 -186 -304 -4 -69 -4 -70 14 -45 58 80 87 111 168 181 91 79 131 99 196 99 45 0 70 -27 92 -101 19 -63 79 -159 126 -203 l31 -30 0 50 c0 44 -17 133 -35 192 -7 21 -5 22 41 22 53 0 91 15 64 24 -100 35 -141 56 -224 111 -108 73 -223 114 -241 86z" fill="#ffffff"/>
<path d="M10670 3530 c0 -5 5 -10 10 -10 6 0 10 -8 10 -18 0 -11 -17 -27 -42 -42 -85 -46 -110 -71 -144 -145 -36 -79 -63 -210 -46 -227 7 -7 15 -1 26 19 24 47 75 104 167 186 93 83 119 97 180 97 50 0 72 -22 93 -93 17 -59 77 -155 125 -201 l31 -30 0 66 c0 57 -12 115 -35 171 -6 15 -1 17 36 17 24 1 55 7 68 14 24 13 23 13 -15 21 -62 11 -151 52 -231 107 -40 27 -94 56 -120 64 -54 16 -113 18 -113 4z" fill="#ffffff"/>
<path d="M15465 3427 c19 -29 23 -24 -76 -80 -28 -16 -59 -46 -77 -73 -52 -77 -94 -240 -72 -274 5 -8 10 -10 10 -4 0 27 91 131 182 209 82 70 106 85 143 91 64 9 93 -1 110 -39 54 -126 78 -169 119 -219 26 -32 52 -58 58 -58 16 0 2 130 -21 196 l-19 54 47 0 c26 0 55 6 64 13 15 11 8 15 -57 35 -40 13 -105 43 -142 68 -103 65 -162 92 -228 100 l-58 7 17 -26z" fill="#ffffff"/>
<path d="M7315 3410 c-3 -5 -1 -10 4 -10 6 0 11 -8 11 -18 0 -12 -18 -29 -51 -47 -79 -43 -113 -78 -149 -156 -26 -56 -34 -90 -38 -148 l-4 -76 30 45 c50 76 231 235 284 251 85 24 123 0 158 -101 27 -76 52 -118 108 -180 l41 -45 1 67 c0 39 -8 92 -20 130 -11 34 -20 64 -20 65 0 1 15 -1 33 -4 18 -3 48 2 67 9 l35 15 -55 18 c-77 25 -122 49 -202 107 -88 64 -215 107 -233 78z" fill="#ffffff"/>
<path d="M730 3352 c0 -5 7 -12 15 -16 38 -14 16 -35 -113 -107 -39 -22 -63 -46 -92 -91 -64 -98 -105 -231 -98 -316 l3 -37 36 56 c45 69 115 140 220 221 44 35 92 72 106 83 19 16 39 20 93 20 83 0 104 -15 127 -94 29 -102 81 -193 161 -281 l41 -45 1 85 c0 76 -18 169 -44 231 -6 13 2 16 51 15 32 0 69 6 83 14 24 13 24 14 -40 35 -88 30 -161 68 -250 130 -111 78 -155 97 -232 103 -43 3 -68 1 -68 -6z" fill="#ffffff"/>
<path d="M8877 3214 c-4 -4 0 -16 9 -26 22 -24 12 -35 -77 -83 -39 -22 -82 -53 -97 -70 -57 -68 -122 -243 -122 -330 0 -70 14 -73 49 -9 34 59 103 132 234 247 82 72 113 87 188 87 61 0 94 -26 113 -90 20 -69 60 -146 106 -205 50 -65 98 -110 107 -102 11 12 -14 188 -36 252 -12 32 -21 61 -21 62 0 2 26 3 58 3 31 1 68 7 81 14 23 13 22 13 -23 25 -91 22 -155 53 -261 121 -58 38 -127 76 -153 84 -59 19 -145 30 -155 20z" fill="#ffffff"/>
<path d="M4725 3094 c-97 -40 -194 -63 -304 -74 -119 -11 -171 -31 -234 -89 -25 -23 -54 -41 -67 -41 -14 0 -42 20 -75 55 l-53 55 -71 0 c-82 0 -157 14 -224 42 -55 24 -67 19 -43 -16 21 -33 55 -50 144 -69 39 -9 95 -26 122 -38 48 -21 50 -23 34 -40 -9 -10 -30 -19 -48 -21 l-31 -3 48 -23 c26 -13 47 -27 47 -31 0 -4 19 -26 41 -49 58 -58 111 -76 196 -67 37 4 111 6 163 5 69 -1 100 3 114 13 22 16 23 16 -76 32 -47 7 -82 48 -73 85 17 68 79 113 221 159 91 29 181 79 219 121 10 11 16 20 14 19 -2 0 -31 -12 -64 -25z" fill="#ffffff"/>
<path d="M12882 3060 c-101 -46 -189 -71 -286 -81 -121 -13 -189 -40 -257 -104 -27 -25 -51 -45 -54 -45 -25 0 -76 34 -94 64 -26 42 -32 44 -171 49 -84 3 -118 9 -167 30 -46 19 -63 22 -63 12 0 -11 63 -75 74 -75 25 0 206 -44 231 -56 30 -14 33 -18 22 -35 -7 -11 -23 -19 -39 -19 -38 0 -43 -16 -7 -24 19 -4 52 -28 88 -64 81 -82 179 -113 258 -81 15 7 72 12 125 13 75 1 101 5 114 17 15 15 11 17 -52 24 -51 5 -72 13 -90 30 -28 28 -29 43 -10 90 19 44 72 79 197 126 106 40 179 81 219 124 28 30 19 31 -38 5z" fill="#ffffff"/>
<path d="M2742 2604 c-65 -22 -146 -40 -220 -48 -147 -18 -199 -36 -261 -92 -28 -25 -59 -44 -72 -44 -15 0 -40 19 -71 53 l-49 52 -112 6 c-88 5 -126 12 -176 33 -35 14 -66 24 -68 22 -8 -8 20 -43 51 -63 17 -11 67 -28 111 -38 85 -18 165 -48 165 -62 0 -16 -24 -33 -46 -33 -36 0 -37 -17 -3 -29 17 -6 54 -36 82 -67 76 -82 112 -98 206 -89 42 4 112 6 155 6 82 -2 161 15 135 29 -8 4 -34 10 -59 14 -116 18 -137 94 -47 171 28 24 71 45 136 66 53 17 118 42 144 57 50 27 130 92 112 91 -5 -1 -56 -16 -113 -35z" fill="#ffffff"/>
<path d="M10965 2534 c-98 -41 -184 -63 -297 -78 -120 -15 -170 -35 -243 -99 -45 -40 -53 -43 -82 -35 -18 5 -40 20 -50 34 -44 63 -46 64 -154 64 -81 0 -115 5 -176 25 -42 14 -78 24 -80 21 -8 -8 20 -44 49 -61 16 -9 68 -25 116 -35 170 -35 208 -71 97 -95 l-30 -7 40 -13 c22 -8 61 -36 90 -66 27 -29 68 -60 90 -70 45 -21 130 -25 172 -8 15 7 68 11 118 10 63 -1 96 2 109 12 17 12 12 15 -49 25 -80 13 -105 32 -105 80 0 54 75 122 166 152 94 30 196 85 247 131 23 21 40 38 37 38 -3 0 -32 -11 -65 -25z" fill="#ffffff"/>
<path d="M14347 2464 c-4 -4 1 -12 10 -19 22 -16 13 -28 -51 -63 -72 -41 -120 -100 -150 -186 -47 -136 -43 -228 7 -143 15 25 75 90 134 146 93 87 115 102 158 112 62 13 101 1 116 -38 37 -91 84 -175 124 -220 26 -29 51 -53 57 -53 20 0 -4 154 -37 233 -6 15 -1 17 38 17 77 0 105 22 45 35 -51 11 -150 59 -217 104 -34 23 -78 48 -99 55 -48 17 -126 28 -135 20z" fill="#ffffff"/>
<path d="M6188 2448 c23 -23 12 -38 -48 -68 -32 -16 -69 -40 -81 -52 -61 -65 -109 -183 -109 -270 l0 -52 29 45 c31 48 88 104 193 192 74 62 133 80 187 57 27 -11 51 -46 51 -73 0 -27 60 -136 105 -191 41 -49 49 -56 57 -41 11 19 1 121 -18 185 -8 25 -14 48 -14 53 0 4 21 7 48 7 46 0 83 13 66 22 -5 3 -27 11 -49 18 -62 20 -135 58 -194 103 -30 22 -76 48 -103 59 -56 21 -139 25 -120 6z" fill="#ffffff"/>
<path d="M4256 1969 c21 -24 22 -23 -69 -70 -65 -34 -114 -93 -147 -179 -23 -59 -39 -180 -24 -180 5 0 23 21 39 47 34 53 213 216 262 238 42 19 103 19 130 0 12 -9 30 -43 43 -82 25 -78 64 -143 113 -191 l34 -33 7 25 c7 29 -9 149 -24 177 -18 32 -11 39 38 39 46 0 83 13 66 22 -5 3 -27 11 -49 18 -62 20 -144 64 -209 113 -63 48 -136 77 -194 77 -35 0 -35 0 -16 -21z" fill="#ffffff"/>
<path d="M12434 1921 c20 -21 23 -18 -79 -84 -96 -62 -155 -195 -146 -332 l2 -30 21 40 c11 22 72 91 136 152 105 102 121 114 168 123 53 11 90 4 111 -21 5 -8 20 -41 32 -74 28 -76 69 -139 122 -190 l42 -40 -7 77 c-5 68 -15 109 -41 172 -7 17 -5 18 19 12 28 -7 96 9 96 22 0 4 -33 17 -73 29 -44 13 -106 44 -153 74 -109 71 -150 89 -213 89 -53 0 -54 -1 -37 -19z" fill="#ffffff"/>
<path d="M16125 1854 c-66 -27 -158 -49 -249 -59 -74 -9 -134 -34 -184 -79 -54 -49 -88 -48 -135 4 -19 22 -44 40 -54 41 -10 0 -54 2 -98 4 -51 1 -100 10 -135 24 -65 25 -70 25 -70 7 0 -26 54 -53 140 -71 47 -9 100 -24 117 -32 28 -13 31 -18 22 -34 -6 -11 -21 -19 -37 -19 l-27 -1 30 -16 c17 -9 56 -40 88 -69 65 -60 97 -70 185 -59 31 4 94 8 139 9 47 1 88 7 94 13 12 12 7 14 -70 27 -46 8 -61 23 -61 61 0 58 62 109 175 145 59 19 145 65 185 99 43 37 26 39 -55 5z" fill="#ffffff"/>
<path d="M7923 1804 c-59 -21 -127 -37 -190 -44 -127 -14 -181 -32 -236 -81 -25 -21 -55 -39 -67 -39 -20 0 -80 52 -80 70 0 16 -64 30 -134 30 -63 1 -116 13 -188 45 -29 12 -22 -20 11 -48 19 -16 61 -32 123 -46 107 -25 146 -45 127 -67 -6 -8 -22 -14 -35 -14 -13 0 -24 -4 -24 -10 0 -5 7 -10 15 -10 9 0 46 -29 83 -64 79 -73 139 -96 208 -77 22 6 77 9 124 8 87 -2 132 9 94 24 -10 4 -33 8 -50 8 -42 1 -76 30 -76 65 0 63 50 108 167 146 90 29 175 74 211 111 34 35 33 35 -83 -7z" fill="#ffffff"/>
<path d="M10914 1362 c15 -18 15 -20 -1 -34 -10 -8 -39 -26 -64 -41 -58 -33 -105 -86 -135 -152 -27 -60 -49 -167 -40 -192 6 -14 12 -9 35 27 33 51 74 92 181 179 89 73 137 90 194 70 36 -13 40 -19 66 -92 28 -80 80 -165 126 -208 l27 -24 -6 90 c-3 50 -12 107 -21 128 l-16 37 37 0 c76 0 110 23 56 36 -52 13 -151 64 -218 114 -70 51 -142 80 -203 80 -33 0 -34 -1 -18 -18z" fill="#ffffff"/>
<path d="M2898 1284 c-5 -4 -2 -14 4 -22 14 -16 -8 -38 -86 -84 -52 -31 -95 -98 -126 -197 -19 -61 -29 -190 -11 -146 30 72 242 278 304 296 86 24 128 3 151 -74 18 -63 79 -158 131 -207 l38 -35 -6 71 c-3 39 -15 96 -26 127 l-19 57 44 0 c25 0 54 5 66 11 17 9 10 14 -61 39 -45 15 -116 51 -159 79 -42 27 -93 57 -112 65 -44 18 -123 30 -132 20z" fill="#ffffff"/>
<path d="M9261 1244 c15 -19 17 -17 -76 -77 -33 -21 -61 -51 -82 -86 -34 -56 -65 -168 -56 -201 5 -17 11 -12 42 32 20 28 80 89 134 135 94 79 101 83 147 83 58 0 75 -17 109 -110 22 -60 93 -159 120 -168 11 -4 12 8 6 63 -4 37 -13 86 -21 108 -8 22 -14 41 -14 43 0 2 12 1 28 -2 15 -3 40 0 57 6 29 11 29 11 -40 35 -39 14 -106 50 -150 80 -84 58 -127 75 -184 75 -30 0 -32 -2 -20 -16z" fill="#ffffff"/>
<path d="M13730 1201 c0 -6 5 -13 10 -16 19 -12 9 -24 -51 -61 -95 -57 -154 -171 -147 -281 l3 -48 22 41 c12 23 66 82 119 132 104 97 159 125 212 106 27 -10 31 -16 80 -124 17 -36 50 -87 75 -115 l46 -50 1 51 c0 45 -13 104 -35 157 -6 13 -2 17 18 17 14 0 38 5 54 11 27 11 26 12 -47 38 -41 15 -110 50 -153 78 -85 57 -207 94 -207 64z" fill="#ffffff"/>
<path d="M9580 510 c-59 -33 -237 -79 -338 -89 -128 -12 -183 -32 -254 -92 -26 -21 -57 -39 -69 -39 -14 0 -40 18 -68 49 l-46 48 -106 6 c-85 5 -122 12 -183 35 -78 31 -91 27 -60 -16 22 -32 62 -50 166 -73 93 -22 148 -43 148 -57 0 -18 -26 -32 -58 -32 -39 0 -35 -15 6 -23 18 -4 47 -28 80 -65 67 -77 112 -96 208 -87 38 3 108 6 155 5 134 -1 189 31 72 43 -46 5 -63 12 -80 32 -29 33 -29 53 0 96 28 42 80 72 180 104 105 34 175 69 228 115 41 36 52 59 19 40z" fill="#ffffff"/>
<path d="M14013 415 c-68 -32 -156 -54 -256 -65 -113 -13 -164 -33 -236 -91 -76 -61 -97 -60 -158 9 l-42 47 -118 6 c-84 4 -135 12 -177 27 -33 12 -61 20 -63 18 -3 -2 1 -13 8 -24 19 -31 76 -58 149 -71 80 -15 158 -39 166 -52 9 -15 -16 -39 -42 -39 -12 0 -26 -4 -29 -10 -3 -6 3 -10 15 -10 11 0 52 -30 93 -68 98 -91 177 -113 264 -77 28 12 54 14 103 9 51 -5 74 -2 105 11 l40 18 -55 9 c-81 12 -107 26 -119 61 -24 66 54 144 186 187 77 25 164 69 208 105 37 31 25 30 -42 0z" fill="#ffffff"/>
</g>
</svg>